<svg width="30" height="31" viewBox="0 0 30 31" fill="none" xmlns="http://www.w3.org/2000/svg">
<path d="M29.7083 12.5623H28.5V12.5H15V18.5H23.4773C22.2405 21.9928 18.9172 24.5 15 24.5C10.0297 24.5 6 20.4702 6 15.5C6 10.5297 10.0297 6.5 15 6.5C17.2943 6.5 19.3815 7.3655 20.9708 8.77925L25.2135 4.5365C22.5345 2.03975 18.951 0.5 15 0.5C6.71625 0.5 0 7.21625 0 15.5C0 23.7838 6.71625 30.5 15 30.5C23.2838 30.5 30 23.7838 30 15.5C30 14.4943 29.8965 13.5125 29.7083 12.5623Z" fill="#FFC107"/>
<path d="M1.72952 8.51825L6.65777 12.1325C7.99127 8.831 11.2208 6.5 15 6.5C17.2943 6.5 19.3815 7.3655 20.9708 8.77925L25.2135 4.5365C22.5345 2.03975 18.951 0.5 15 0.5C9.23852 0.5 4.24202 3.75275 1.72952 8.51825Z" fill="#FF3D00"/>
<path d="M14.9999 30.4995C18.8744 30.4995 22.3949 29.0168 25.0567 26.6055L20.4142 22.677C18.8576 23.8608 16.9555 24.5011 14.9999 24.4995C11.0984 24.4995 7.78568 22.0118 6.53768 18.54L1.64618 22.3088C4.12868 27.1665 9.17018 30.4995 14.9999 30.4995Z" fill="#4CAF50"/>
<path d="M29.7083 12.5623H28.5V12.5H15V18.5H23.4773C22.8857 20.1623 21.82 21.6149 20.412 22.6782L20.4142 22.6768L25.0568 26.6052C24.7283 26.9037 30 23 30 15.5C30 14.4943 29.8965 13.5125 29.7083 12.5623Z" fill="#1976D2"/>
</svg>
