<svg width="26" height="30" viewBox="0 0 26 30" fill="none" xmlns="http://www.w3.org/2000/svg">
<path d="M21.1472 15.854C21.1327 13.3949 22.2509 11.5416 24.5089 10.1751C23.246 8.37227 21.3354 7.38072 18.8168 7.18962C16.4321 7.00213 13.8231 8.57419 12.8678 8.57419C11.8582 8.57419 9.54953 7.25453 7.73298 7.25453C3.9841 7.31222 0 10.2328 0 16.1749C0 17.9308 0.322057 19.7444 0.96617 21.6121C1.8274 24.0712 4.93217 30.0962 8.17083 29.9988C9.86434 29.9592 11.0621 28.8018 13.2658 28.8018C15.4044 28.8018 16.5117 29.9988 18.4007 29.9988C21.6683 29.952 24.4763 24.475 25.2941 22.0088C20.912 19.9499 21.1472 15.9801 21.1472 15.854ZM17.344 4.85678C19.1787 2.68619 19.0122 0.710309 18.9579 0C17.3368 0.0937464 15.4623 1.09972 14.3948 2.33645C13.2188 3.66332 12.5276 5.30388 12.676 7.15357C14.4274 7.28698 16.0268 6.38917 17.344 4.85678Z" fill="white"/>
</svg>
