<svg width="17" height="14" viewBox="0 0 17 14" fill="none" xmlns="http://www.w3.org/2000/svg">
<path d="M8.5 2.77524C10.6327 2.77524 12.3636 4.48661 12.3636 6.59526C12.3636 6.9849 12.2864 7.35926 12.1782 7.71071L14.5427 10.0486C15.6168 9.10883 16.4668 7.93227 17 6.58762C15.6632 3.24128 12.3636 0.865234 8.5 0.865234C7.51864 0.865234 6.57591 1.01803 5.68727 1.30072L7.36409 2.9586C7.72727 2.85164 8.10591 2.77524 8.5 2.77524ZM1.32136 0.223471C1.24973 0.294152 1.1929 0.378107 1.15412 0.470531C1.11534 0.562955 1.09538 0.662033 1.09538 0.762094C1.09538 0.862154 1.11534 0.961232 1.15412 1.05366C1.1929 1.14608 1.24973 1.23004 1.32136 1.30072L2.84364 2.8058C1.57476 3.7993 0.593795 5.10654 0 6.59526C1.33682 9.94924 4.63636 12.3253 8.5 12.3253C9.67455 12.3253 10.795 12.0961 11.8305 11.6988L13.9323 13.7769C14.0768 13.9197 14.2727 14 14.477 14C14.6814 14 14.8773 13.9197 15.0218 13.7769C15.1663 13.634 15.2475 13.4403 15.2475 13.2383C15.2475 13.0363 15.1663 12.8425 15.0218 12.6996L2.41864 0.223471C2.11727 -0.0744904 1.62273 -0.0744904 1.32136 0.223471ZM8.5 10.4153C6.36727 10.4153 4.63636 8.70391 4.63636 6.59526C4.63636 6.00698 4.77545 5.44926 5.015 4.96029L6.22818 6.15978C6.205 6.2973 6.18182 6.44246 6.18182 6.59526C6.18182 7.86351 7.21727 8.88727 8.5 8.88727C8.65454 8.88727 8.79364 8.86435 8.94045 8.83379L10.1536 10.0333C9.65136 10.2778 9.095 10.4153 8.5 10.4153ZM10.795 6.34314C10.7396 5.82695 10.5069 5.34515 10.1356 4.9781C9.76438 4.61105 9.27708 4.38095 8.755 4.32617L10.795 6.34314Z" fill="white"/>
</svg>
