<svg width="11" height="7" viewBox="0 0 11 7" fill="none" xmlns="http://www.w3.org/2000/svg">
<path d="M10.2365 0.156939L5.49952 5.73587L0.762546 0.156939C0.677912 0.057061 0.564298 0.00114502 0.44599 0.00114502C0.327682 0.00114502 0.214068 0.057061 0.129434 0.156939C0.0884543 0.205451 0.0558984 0.263353 0.0336731 0.327257C0.0114478 0.391161 0 0.45978 0 0.529097C0 0.598413 0.0114478 0.667032 0.0336731 0.730936C0.0558984 0.794839 0.0884543 0.852743 0.129434 0.901254L5.16874 6.83745C5.25724 6.94167 5.37593 7 5.49952 7C5.6231 7 5.74179 6.94167 5.83029 6.83745L10.8696 0.902399C10.9109 0.853852 10.9437 0.795806 10.9661 0.731691C10.9885 0.667575 11 0.598689 11 0.529097C11 0.459504 10.9885 0.390617 10.9661 0.326502C10.9437 0.262386 10.9109 0.204342 10.8696 0.155794C10.785 0.0559155 10.6713 0 10.553 0C10.4347 0 10.3211 0.0559155 10.2365 0.155794V0.156939Z" fill="#B5B7C2"/>
</svg>
